<mxfile host="app.diagrams.net" agent="Mozilla/5.0 (Windows NT 10.0; Win64; x64) AppleWebKit/537.36 (KHTML, like Gecko) Chrome/130.0.0.0 Safari/537.36 Edg/130.0.0.0" version="24.8.3">
  <diagram name="Page-1" id="Fl8KUuJjqsqeYWpu98s5">
    <mxGraphModel dx="1026" dy="1138" grid="1" gridSize="10" guides="1" tooltips="1" connect="1" arrows="1" fold="1" page="1" pageScale="1" pageWidth="850" pageHeight="1100" math="0" shadow="0">
      <root>
        <mxCell id="0" />
        <mxCell id="1" parent="0" />
        <mxCell id="wJl3Vz2HcoKg6hPda5fq-24" style="edgeStyle=orthogonalEdgeStyle;rounded=0;orthogonalLoop=1;jettySize=auto;html=1;exitX=0.5;exitY=1;exitDx=0;exitDy=0;exitPerimeter=0;entryX=0.5;entryY=0;entryDx=0;entryDy=0;" edge="1" parent="1" source="wJl3Vz2HcoKg6hPda5fq-1" target="wJl3Vz2HcoKg6hPda5fq-4">
          <mxGeometry relative="1" as="geometry" />
        </mxCell>
        <mxCell id="wJl3Vz2HcoKg6hPda5fq-1" value="Start" style="strokeWidth=2;html=1;shape=mxgraph.flowchart.terminator;whiteSpace=wrap;" vertex="1" parent="1">
          <mxGeometry x="40" y="40" width="120" height="40" as="geometry" />
        </mxCell>
        <mxCell id="wJl3Vz2HcoKg6hPda5fq-26" style="edgeStyle=orthogonalEdgeStyle;rounded=0;orthogonalLoop=1;jettySize=auto;html=1;exitX=0.5;exitY=1;exitDx=0;exitDy=0;exitPerimeter=0;entryX=0.5;entryY=0;entryDx=0;entryDy=0;" edge="1" parent="1" source="wJl3Vz2HcoKg6hPda5fq-3" target="wJl3Vz2HcoKg6hPda5fq-7">
          <mxGeometry relative="1" as="geometry" />
        </mxCell>
        <mxCell id="wJl3Vz2HcoKg6hPda5fq-65" style="edgeStyle=orthogonalEdgeStyle;rounded=0;orthogonalLoop=1;jettySize=auto;html=1;exitX=1;exitY=0.5;exitDx=0;exitDy=0;exitPerimeter=0;entryX=0;entryY=0.5;entryDx=0;entryDy=0;entryPerimeter=0;" edge="1" parent="1" source="wJl3Vz2HcoKg6hPda5fq-3" target="wJl3Vz2HcoKg6hPda5fq-66">
          <mxGeometry relative="1" as="geometry">
            <mxPoint x="220" y="259.6153846153845" as="targetPoint" />
          </mxGeometry>
        </mxCell>
        <mxCell id="wJl3Vz2HcoKg6hPda5fq-3" value="input != &quot;e&quot;" style="strokeWidth=2;html=1;shape=mxgraph.flowchart.decision;whiteSpace=wrap;" vertex="1" parent="1">
          <mxGeometry x="40" y="200" width="120" height="120" as="geometry" />
        </mxCell>
        <mxCell id="wJl3Vz2HcoKg6hPda5fq-4" value="Initialize input, num_1, num_2" style="rounded=0;whiteSpace=wrap;html=1;" vertex="1" parent="1">
          <mxGeometry x="40" y="120" width="120" height="40" as="geometry" />
        </mxCell>
        <mxCell id="wJl3Vz2HcoKg6hPda5fq-27" style="edgeStyle=orthogonalEdgeStyle;rounded=0;orthogonalLoop=1;jettySize=auto;html=1;exitX=0.5;exitY=1;exitDx=0;exitDy=0;entryX=0.5;entryY=0;entryDx=0;entryDy=0;" edge="1" parent="1" source="wJl3Vz2HcoKg6hPda5fq-7" target="wJl3Vz2HcoKg6hPda5fq-8">
          <mxGeometry relative="1" as="geometry" />
        </mxCell>
        <mxCell id="wJl3Vz2HcoKg6hPda5fq-7" value="Read num_1" style="shape=parallelogram;perimeter=parallelogramPerimeter;whiteSpace=wrap;html=1;fixedSize=1;" vertex="1" parent="1">
          <mxGeometry x="40" y="360" width="120" height="40" as="geometry" />
        </mxCell>
        <mxCell id="wJl3Vz2HcoKg6hPda5fq-28" style="edgeStyle=orthogonalEdgeStyle;rounded=0;orthogonalLoop=1;jettySize=auto;html=1;exitX=0.5;exitY=1;exitDx=0;exitDy=0;entryX=0.5;entryY=0;entryDx=0;entryDy=0;" edge="1" parent="1" source="wJl3Vz2HcoKg6hPda5fq-8" target="wJl3Vz2HcoKg6hPda5fq-11">
          <mxGeometry relative="1" as="geometry" />
        </mxCell>
        <mxCell id="wJl3Vz2HcoKg6hPda5fq-8" value="Read num_2" style="shape=parallelogram;perimeter=parallelogramPerimeter;whiteSpace=wrap;html=1;fixedSize=1;" vertex="1" parent="1">
          <mxGeometry x="40" y="440" width="120" height="40" as="geometry" />
        </mxCell>
        <mxCell id="wJl3Vz2HcoKg6hPda5fq-30" style="edgeStyle=orthogonalEdgeStyle;rounded=0;orthogonalLoop=1;jettySize=auto;html=1;exitX=0.5;exitY=1;exitDx=0;exitDy=0;entryX=0.5;entryY=0;entryDx=0;entryDy=0;" edge="1" parent="1" source="wJl3Vz2HcoKg6hPda5fq-9" target="wJl3Vz2HcoKg6hPda5fq-12">
          <mxGeometry relative="1" as="geometry" />
        </mxCell>
        <mxCell id="wJl3Vz2HcoKg6hPda5fq-9" value="Read input" style="shape=parallelogram;perimeter=parallelogramPerimeter;whiteSpace=wrap;html=1;fixedSize=1;" vertex="1" parent="1">
          <mxGeometry x="40" y="600" width="120" height="40" as="geometry" />
        </mxCell>
        <mxCell id="wJl3Vz2HcoKg6hPda5fq-29" style="edgeStyle=orthogonalEdgeStyle;rounded=0;orthogonalLoop=1;jettySize=auto;html=1;exitX=0.5;exitY=1;exitDx=0;exitDy=0;entryX=0.5;entryY=0;entryDx=0;entryDy=0;" edge="1" parent="1" source="wJl3Vz2HcoKg6hPda5fq-11" target="wJl3Vz2HcoKg6hPda5fq-9">
          <mxGeometry relative="1" as="geometry" />
        </mxCell>
        <mxCell id="wJl3Vz2HcoKg6hPda5fq-11" value="Display menu" style="rounded=0;whiteSpace=wrap;html=1;" vertex="1" parent="1">
          <mxGeometry x="40" y="520" width="120" height="40" as="geometry" />
        </mxCell>
        <mxCell id="wJl3Vz2HcoKg6hPda5fq-31" style="edgeStyle=orthogonalEdgeStyle;rounded=0;orthogonalLoop=1;jettySize=auto;html=1;exitX=0.5;exitY=1;exitDx=0;exitDy=0;entryX=0.5;entryY=0;entryDx=0;entryDy=0;" edge="1" parent="1" source="wJl3Vz2HcoKg6hPda5fq-12" target="wJl3Vz2HcoKg6hPda5fq-17">
          <mxGeometry relative="1" as="geometry" />
        </mxCell>
        <mxCell id="wJl3Vz2HcoKg6hPda5fq-32" style="edgeStyle=orthogonalEdgeStyle;rounded=0;orthogonalLoop=1;jettySize=auto;html=1;exitX=1;exitY=0.5;exitDx=0;exitDy=0;entryX=0;entryY=0.5;entryDx=0;entryDy=0;" edge="1" parent="1" source="wJl3Vz2HcoKg6hPda5fq-12" target="wJl3Vz2HcoKg6hPda5fq-13">
          <mxGeometry relative="1" as="geometry" />
        </mxCell>
        <mxCell id="wJl3Vz2HcoKg6hPda5fq-12" value="input = &quot;a&quot;" style="rhombus;whiteSpace=wrap;html=1;" vertex="1" parent="1">
          <mxGeometry x="60" y="680" width="80" height="80" as="geometry" />
        </mxCell>
        <mxCell id="wJl3Vz2HcoKg6hPda5fq-33" style="edgeStyle=orthogonalEdgeStyle;rounded=0;orthogonalLoop=1;jettySize=auto;html=1;exitX=0.5;exitY=1;exitDx=0;exitDy=0;entryX=0.5;entryY=0;entryDx=0;entryDy=0;" edge="1" parent="1" source="wJl3Vz2HcoKg6hPda5fq-13" target="wJl3Vz2HcoKg6hPda5fq-18">
          <mxGeometry relative="1" as="geometry" />
        </mxCell>
        <mxCell id="wJl3Vz2HcoKg6hPda5fq-56" style="edgeStyle=orthogonalEdgeStyle;rounded=0;orthogonalLoop=1;jettySize=auto;html=1;exitX=1;exitY=0.5;exitDx=0;exitDy=0;entryX=0;entryY=0.5;entryDx=0;entryDy=0;" edge="1" parent="1" source="wJl3Vz2HcoKg6hPda5fq-13" target="wJl3Vz2HcoKg6hPda5fq-14">
          <mxGeometry relative="1" as="geometry" />
        </mxCell>
        <mxCell id="wJl3Vz2HcoKg6hPda5fq-13" value="input = &quot;b&quot;" style="rhombus;whiteSpace=wrap;html=1;" vertex="1" parent="1">
          <mxGeometry x="190" y="680" width="80" height="80" as="geometry" />
        </mxCell>
        <mxCell id="wJl3Vz2HcoKg6hPda5fq-35" style="edgeStyle=orthogonalEdgeStyle;rounded=0;orthogonalLoop=1;jettySize=auto;html=1;exitX=0.5;exitY=1;exitDx=0;exitDy=0;entryX=0.5;entryY=0;entryDx=0;entryDy=0;" edge="1" parent="1" source="wJl3Vz2HcoKg6hPda5fq-14" target="wJl3Vz2HcoKg6hPda5fq-19">
          <mxGeometry relative="1" as="geometry" />
        </mxCell>
        <mxCell id="wJl3Vz2HcoKg6hPda5fq-36" style="edgeStyle=orthogonalEdgeStyle;rounded=0;orthogonalLoop=1;jettySize=auto;html=1;exitX=1;exitY=0.5;exitDx=0;exitDy=0;" edge="1" parent="1" source="wJl3Vz2HcoKg6hPda5fq-14" target="wJl3Vz2HcoKg6hPda5fq-15">
          <mxGeometry relative="1" as="geometry" />
        </mxCell>
        <mxCell id="wJl3Vz2HcoKg6hPda5fq-14" value="input = &quot;c&quot;" style="rhombus;whiteSpace=wrap;html=1;" vertex="1" parent="1">
          <mxGeometry x="320" y="680" width="80" height="80" as="geometry" />
        </mxCell>
        <mxCell id="wJl3Vz2HcoKg6hPda5fq-37" style="edgeStyle=orthogonalEdgeStyle;rounded=0;orthogonalLoop=1;jettySize=auto;html=1;exitX=0.5;exitY=1;exitDx=0;exitDy=0;entryX=0.5;entryY=0;entryDx=0;entryDy=0;" edge="1" parent="1" source="wJl3Vz2HcoKg6hPda5fq-15" target="wJl3Vz2HcoKg6hPda5fq-20">
          <mxGeometry relative="1" as="geometry" />
        </mxCell>
        <mxCell id="wJl3Vz2HcoKg6hPda5fq-38" style="edgeStyle=orthogonalEdgeStyle;rounded=0;orthogonalLoop=1;jettySize=auto;html=1;exitX=1;exitY=0.5;exitDx=0;exitDy=0;entryX=0;entryY=0.5;entryDx=0;entryDy=0;" edge="1" parent="1" source="wJl3Vz2HcoKg6hPda5fq-15" target="wJl3Vz2HcoKg6hPda5fq-16">
          <mxGeometry relative="1" as="geometry" />
        </mxCell>
        <mxCell id="wJl3Vz2HcoKg6hPda5fq-15" value="input = &quot;d&quot;" style="rhombus;whiteSpace=wrap;html=1;" vertex="1" parent="1">
          <mxGeometry x="450" y="680" width="80" height="80" as="geometry" />
        </mxCell>
        <mxCell id="wJl3Vz2HcoKg6hPda5fq-39" style="edgeStyle=orthogonalEdgeStyle;rounded=0;orthogonalLoop=1;jettySize=auto;html=1;exitX=0.5;exitY=1;exitDx=0;exitDy=0;entryX=0.5;entryY=0;entryDx=0;entryDy=0;" edge="1" parent="1" source="wJl3Vz2HcoKg6hPda5fq-16" target="wJl3Vz2HcoKg6hPda5fq-21">
          <mxGeometry relative="1" as="geometry" />
        </mxCell>
        <mxCell id="wJl3Vz2HcoKg6hPda5fq-40" style="edgeStyle=orthogonalEdgeStyle;rounded=0;orthogonalLoop=1;jettySize=auto;html=1;exitX=1;exitY=0.5;exitDx=0;exitDy=0;entryX=0;entryY=0.5;entryDx=0;entryDy=0;" edge="1" parent="1" source="wJl3Vz2HcoKg6hPda5fq-16" target="wJl3Vz2HcoKg6hPda5fq-22">
          <mxGeometry relative="1" as="geometry" />
        </mxCell>
        <mxCell id="wJl3Vz2HcoKg6hPda5fq-16" value="input = &quot;e&quot;" style="rhombus;whiteSpace=wrap;html=1;" vertex="1" parent="1">
          <mxGeometry x="580" y="680" width="80" height="80" as="geometry" />
        </mxCell>
        <mxCell id="wJl3Vz2HcoKg6hPda5fq-17" value="Display num_1 + num_2" style="rounded=0;whiteSpace=wrap;html=1;" vertex="1" parent="1">
          <mxGeometry x="40" y="800" width="120" height="40" as="geometry" />
        </mxCell>
        <mxCell id="wJl3Vz2HcoKg6hPda5fq-18" value="Display num_1 - num_2" style="rounded=0;whiteSpace=wrap;html=1;" vertex="1" parent="1">
          <mxGeometry x="170" y="800" width="120" height="40" as="geometry" />
        </mxCell>
        <mxCell id="wJl3Vz2HcoKg6hPda5fq-19" value="Display num_1 * num_2" style="rounded=0;whiteSpace=wrap;html=1;" vertex="1" parent="1">
          <mxGeometry x="300" y="800" width="120" height="40" as="geometry" />
        </mxCell>
        <mxCell id="wJl3Vz2HcoKg6hPda5fq-20" value="Display num_1 / num_2" style="rounded=0;whiteSpace=wrap;html=1;" vertex="1" parent="1">
          <mxGeometry x="430" y="800" width="120" height="40" as="geometry" />
        </mxCell>
        <mxCell id="wJl3Vz2HcoKg6hPda5fq-69" style="edgeStyle=orthogonalEdgeStyle;rounded=0;orthogonalLoop=1;jettySize=auto;html=1;exitX=0.5;exitY=1;exitDx=0;exitDy=0;" edge="1" parent="1" source="wJl3Vz2HcoKg6hPda5fq-21">
          <mxGeometry relative="1" as="geometry">
            <mxPoint x="39.999999999999886" y="260" as="targetPoint" />
            <Array as="points">
              <mxPoint x="620" y="880" />
              <mxPoint x="20" y="880" />
              <mxPoint x="20" y="260" />
            </Array>
          </mxGeometry>
        </mxCell>
        <mxCell id="wJl3Vz2HcoKg6hPda5fq-21" value="Display &quot;Thank you for using our calculator&quot;" style="rounded=0;whiteSpace=wrap;html=1;" vertex="1" parent="1">
          <mxGeometry x="560" y="800" width="120" height="50" as="geometry" />
        </mxCell>
        <mxCell id="wJl3Vz2HcoKg6hPda5fq-22" value="Display &quot;Kindly choose from the menu&quot;" style="rounded=0;whiteSpace=wrap;html=1;" vertex="1" parent="1">
          <mxGeometry x="710" y="695" width="120" height="50" as="geometry" />
        </mxCell>
        <mxCell id="wJl3Vz2HcoKg6hPda5fq-25" style="edgeStyle=orthogonalEdgeStyle;rounded=0;orthogonalLoop=1;jettySize=auto;html=1;exitX=0.5;exitY=1;exitDx=0;exitDy=0;entryX=0.5;entryY=0;entryDx=0;entryDy=0;entryPerimeter=0;" edge="1" parent="1" source="wJl3Vz2HcoKg6hPda5fq-4" target="wJl3Vz2HcoKg6hPda5fq-3">
          <mxGeometry relative="1" as="geometry" />
        </mxCell>
        <mxCell id="wJl3Vz2HcoKg6hPda5fq-43" style="edgeStyle=orthogonalEdgeStyle;rounded=0;orthogonalLoop=1;jettySize=auto;html=1;exitX=0.5;exitY=1;exitDx=0;exitDy=0;entryX=0;entryY=0.5;entryDx=0;entryDy=0;entryPerimeter=0;" edge="1" parent="1" source="wJl3Vz2HcoKg6hPda5fq-17" target="wJl3Vz2HcoKg6hPda5fq-3">
          <mxGeometry relative="1" as="geometry">
            <Array as="points">
              <mxPoint x="100" y="880" />
              <mxPoint x="20" y="880" />
              <mxPoint x="20" y="260" />
            </Array>
          </mxGeometry>
        </mxCell>
        <mxCell id="wJl3Vz2HcoKg6hPda5fq-46" style="edgeStyle=orthogonalEdgeStyle;rounded=0;orthogonalLoop=1;jettySize=auto;html=1;exitX=0.5;exitY=1;exitDx=0;exitDy=0;entryX=0;entryY=0.5;entryDx=0;entryDy=0;entryPerimeter=0;" edge="1" parent="1" source="wJl3Vz2HcoKg6hPda5fq-18" target="wJl3Vz2HcoKg6hPda5fq-3">
          <mxGeometry relative="1" as="geometry">
            <Array as="points">
              <mxPoint x="230" y="880" />
              <mxPoint x="20" y="880" />
              <mxPoint x="20" y="260" />
            </Array>
          </mxGeometry>
        </mxCell>
        <mxCell id="wJl3Vz2HcoKg6hPda5fq-47" style="edgeStyle=orthogonalEdgeStyle;rounded=0;orthogonalLoop=1;jettySize=auto;html=1;exitX=0.5;exitY=1;exitDx=0;exitDy=0;entryX=0;entryY=0.5;entryDx=0;entryDy=0;entryPerimeter=0;" edge="1" parent="1" source="wJl3Vz2HcoKg6hPda5fq-19" target="wJl3Vz2HcoKg6hPda5fq-3">
          <mxGeometry relative="1" as="geometry">
            <Array as="points">
              <mxPoint x="360" y="880" />
              <mxPoint x="20" y="880" />
              <mxPoint x="20" y="260" />
            </Array>
          </mxGeometry>
        </mxCell>
        <mxCell id="wJl3Vz2HcoKg6hPda5fq-49" style="edgeStyle=orthogonalEdgeStyle;rounded=0;orthogonalLoop=1;jettySize=auto;html=1;exitX=0.5;exitY=1;exitDx=0;exitDy=0;entryX=0;entryY=0.5;entryDx=0;entryDy=0;entryPerimeter=0;" edge="1" parent="1" source="wJl3Vz2HcoKg6hPda5fq-20" target="wJl3Vz2HcoKg6hPda5fq-3">
          <mxGeometry relative="1" as="geometry">
            <Array as="points">
              <mxPoint x="490" y="880" />
              <mxPoint x="20" y="880" />
              <mxPoint x="20" y="260" />
            </Array>
          </mxGeometry>
        </mxCell>
        <mxCell id="wJl3Vz2HcoKg6hPda5fq-50" value="true" style="text;html=1;align=center;verticalAlign=middle;resizable=0;points=[];autosize=1;strokeColor=none;fillColor=none;" vertex="1" parent="1">
          <mxGeometry x="100" y="760" width="40" height="30" as="geometry" />
        </mxCell>
        <mxCell id="wJl3Vz2HcoKg6hPda5fq-53" value="true" style="text;html=1;align=center;verticalAlign=middle;resizable=0;points=[];autosize=1;strokeColor=none;fillColor=none;" vertex="1" parent="1">
          <mxGeometry x="360" y="760" width="40" height="30" as="geometry" />
        </mxCell>
        <mxCell id="wJl3Vz2HcoKg6hPda5fq-54" value="true" style="text;html=1;align=center;verticalAlign=middle;resizable=0;points=[];autosize=1;strokeColor=none;fillColor=none;" vertex="1" parent="1">
          <mxGeometry x="490" y="760" width="40" height="30" as="geometry" />
        </mxCell>
        <mxCell id="wJl3Vz2HcoKg6hPda5fq-55" value="true" style="text;html=1;align=center;verticalAlign=middle;resizable=0;points=[];autosize=1;strokeColor=none;fillColor=none;" vertex="1" parent="1">
          <mxGeometry x="620" y="760" width="40" height="30" as="geometry" />
        </mxCell>
        <mxCell id="wJl3Vz2HcoKg6hPda5fq-57" value="true" style="text;html=1;align=center;verticalAlign=middle;resizable=0;points=[];autosize=1;strokeColor=none;fillColor=none;" vertex="1" parent="1">
          <mxGeometry x="230" y="760" width="40" height="30" as="geometry" />
        </mxCell>
        <mxCell id="wJl3Vz2HcoKg6hPda5fq-58" value="false" style="text;html=1;align=center;verticalAlign=middle;resizable=0;points=[];autosize=1;strokeColor=none;fillColor=none;" vertex="1" parent="1">
          <mxGeometry x="135" y="690" width="50" height="30" as="geometry" />
        </mxCell>
        <mxCell id="wJl3Vz2HcoKg6hPda5fq-59" value="false" style="text;html=1;align=center;verticalAlign=middle;resizable=0;points=[];autosize=1;strokeColor=none;fillColor=none;" vertex="1" parent="1">
          <mxGeometry x="270" y="690" width="50" height="30" as="geometry" />
        </mxCell>
        <mxCell id="wJl3Vz2HcoKg6hPda5fq-60" value="false" style="text;html=1;align=center;verticalAlign=middle;resizable=0;points=[];autosize=1;strokeColor=none;fillColor=none;" vertex="1" parent="1">
          <mxGeometry x="400" y="690" width="50" height="30" as="geometry" />
        </mxCell>
        <mxCell id="wJl3Vz2HcoKg6hPda5fq-61" value="false" style="text;html=1;align=center;verticalAlign=middle;resizable=0;points=[];autosize=1;strokeColor=none;fillColor=none;" vertex="1" parent="1">
          <mxGeometry x="530" y="690" width="50" height="30" as="geometry" />
        </mxCell>
        <mxCell id="wJl3Vz2HcoKg6hPda5fq-62" value="false" style="text;html=1;align=center;verticalAlign=middle;resizable=0;points=[];autosize=1;strokeColor=none;fillColor=none;" vertex="1" parent="1">
          <mxGeometry x="660" y="690" width="50" height="30" as="geometry" />
        </mxCell>
        <mxCell id="wJl3Vz2HcoKg6hPda5fq-63" style="edgeStyle=orthogonalEdgeStyle;rounded=0;orthogonalLoop=1;jettySize=auto;html=1;exitX=0.5;exitY=1;exitDx=0;exitDy=0;entryX=0;entryY=0.5;entryDx=0;entryDy=0;entryPerimeter=0;" edge="1" parent="1" source="wJl3Vz2HcoKg6hPda5fq-22" target="wJl3Vz2HcoKg6hPda5fq-3">
          <mxGeometry relative="1" as="geometry">
            <Array as="points">
              <mxPoint x="770" y="880" />
              <mxPoint x="20" y="880" />
              <mxPoint x="20" y="260" />
            </Array>
          </mxGeometry>
        </mxCell>
        <mxCell id="wJl3Vz2HcoKg6hPda5fq-66" value="End" style="strokeWidth=2;html=1;shape=mxgraph.flowchart.terminator;whiteSpace=wrap;" vertex="1" parent="1">
          <mxGeometry x="220" y="240" width="120" height="40" as="geometry" />
        </mxCell>
        <mxCell id="wJl3Vz2HcoKg6hPda5fq-67" value="true" style="text;html=1;align=center;verticalAlign=middle;resizable=0;points=[];autosize=1;strokeColor=none;fillColor=none;" vertex="1" parent="1">
          <mxGeometry x="100" y="320" width="40" height="30" as="geometry" />
        </mxCell>
        <mxCell id="wJl3Vz2HcoKg6hPda5fq-68" value="false" style="text;html=1;align=center;verticalAlign=middle;resizable=0;points=[];autosize=1;strokeColor=none;fillColor=none;" vertex="1" parent="1">
          <mxGeometry x="160" y="230" width="50" height="30" as="geometry" />
        </mxCell>
      </root>
    </mxGraphModel>
  </diagram>
</mxfile>
